<svg width="360" height="130" viewBox="0 0 360 130" fill="none" xmlns="http://www.w3.org/2000/svg">
<path d="M331.7 39.3L329 50.4L326.5 38.1L293.2 30.8L293.4 49.3L298.4 50.4L298 53.7L297.9 53.6C291.7 50.3 284 50 276.7 52.7C274.3 53.6 272 54.9 270 56.3L265 24.6H242.9L242.3 28.2H219L216.3 44.5L214.4 42.1C208.8 35.2 200.6 31.3 191.5 31.2L211.3 20.6L197.5 0L172.6 28.7L176.9 33.9C173 35.5 169.6 37.7 166.8 40.3L145.5 21.6L138 35.9L138.3 22.1L104.9 32.8L105.8 50.7L111.5 49.2L112.3 58.3C105.8 55.4 98 55.5 90.8 58.5C88.7 59.4 86.7 60.6 84.8 61.9C86.1 56.4 85.8 50.9 83.6 46C81.1 40.2 76.7 35.5 71.3 32.5C67.5 30 63 28.4 58.3 27.9C46.7 25.9 32.9 28 19.2 33.8C14.2 35.9 9.5 38.4 5.3 41.1L0 44.5L3.2 49.9L13.2 66.8L16.3 72L21.7 69.3L22.5 69.1L47.4 124.6L49.8 129.9L55.4 128.1L68.9 123.8L74.8 121.9L73.2 115.9L66.1 88.5C68.2 87 70.1 85.4 71.8 83.7C71.4 87 71.6 90.3 72.5 93.5C74.4 100.1 78.7 105.4 84.8 108.3C91.3 111.4 99.3 111.4 106.6 108.3C110.3 106.7 113.6 104.4 116.4 101.7L117.4 112.6L141 109.1V88L190.2 112.3V88.7C192.2 88.5 194.2 88.2 196.2 87.7C201.6 86.4 206.3 84.6 210.4 82.1L208.3 94.7L234.8 98.9L236.3 89.4L243.2 102.2L247.4 94L248.9 107.4L279 112.7L277.4 102.6C281.5 103.1 285.9 102.5 290.1 100.9C291.1 100.5 292.1 100.1 293 99.6L291.8 110.4L311.8 113.2L311.9 121.4L332.8 128L360 46.1L331.7 39.3ZM214.1 51.5L215.5 50L213.8 60.3L209.5 56.4L214.1 51.5ZM196.5 9.3L203.8 19.2L183 29.5L181.6 27.3L196.5 9.3ZM58.5 85.7L66.8 117.6L53.3 121.9L25.7 60.2C24.2 61 21.4 62.3 18.9 63.6L8.9 46.7C12.9 44.2 17.2 41.9 21.9 39.9C34.9 34.4 47.3 32.7 57.3 34.5C60.8 34.9 64.5 35.9 67.8 38.1C72.3 40.6 75.7 44.2 77.7 48.8C82.4 59.9 74.4 75.9 58.5 85.7ZM120.4 80C120.2 84.8 118.5 89.5 115.6 93.5C112.8 97.4 108.9 100.6 104.4 102.6C92.7 107.5 81 102.6 77.9 91.5C74.9 80.8 81.9 68 93.2 63.1C100.4 60 107.7 60.8 112.9 64.3C116.1 66.5 118.6 69.7 119.7 73.8C119.8 74.2 119.9 74.7 120 75.1C120.3 76.8 120.4 78.4 120.4 80ZM183.9 102.6L135.1 78.1L135.2 103.7L122.6 105.4L121.7 94.9C125.6 88.2 127 80.3 125 73.1C123.9 69.1 121.8 65.7 119 62.9L117.2 41.4L111.5 42.9L111.2 37.5L131.5 31.5L132.7 52.4L147.6 31.4L162.2 45.3L141.8 66.8L161 74.4C163.1 78.5 166.4 81.9 170.5 84.5C174.5 86.9 179 88.4 183.8 88.9L183.9 102.6ZM158.5 67.2L151.7 64.6L158 58.4C157.8 61.2 157.9 64.2 158.5 67.2ZM211.7 73.6C207 77.5 201.7 80 194.6 81.7C193.1 82.1 191.5 82.3 190.1 82.4C178.9 83.5 169.5 78.4 165.9 70C165.5 69 165.1 68 164.9 66.9C163.3 59.9 164.7 53.6 168.1 48.7C169.1 47.3 170.3 46 171.6 44.8C174.9 41.9 179 39.8 183.8 38.6C194.5 36 203.9 39.3 209.6 46.4L189.3 68C190.7 68.3 192.9 67.9 194.5 67.5C199.3 66.3 202.1 63.7 204.4 60.9L212.5 68.2L215 70.4C213.9 71.6 212.8 72.6 211.7 73.6ZM254.8 102.5L250.4 73.2L244.1 89.4L234.7 69.2H234.6L230.9 92.6L215.3 89.9L217.5 76.8C218.1 76.2 218.7 75.7 219.2 75.1L224.3 69.9L219.4 65.5L224.6 34.4H240.4L244.3 55.9L248.7 31H260L264.7 61.4C258.7 68.2 255.9 77.3 257.8 85.6C259.3 92.1 263.3 97.3 269 100.3C269.6 100.6 270.2 100.9 270.8 101.1L271.4 105L254.8 102.5ZM293.7 92.9C292 94.1 290.1 95.2 288 95.9C284 97.4 280 97.8 276.4 97C273.9 96.5 271.7 95.5 269.7 94.1C266.6 91.8 264.3 88.5 263.2 84.3C262 79.2 263.1 73.9 265.8 69.1C267.2 66.8 268.9 64.6 270.9 62.7C273.2 60.6 275.9 59 278.8 57.8C285.7 55.2 292.5 56.1 297.3 59.6C299.1 60.8 300.5 62.4 301.7 64.3C302.6 65.8 303.2 67.4 303.7 69.1C305.2 75.2 303.4 81.7 299.6 86.9C298 89.3 296 91.3 293.7 92.9ZM328.9 120.5L317.4 117.1L316.4 74.5L310.6 107.3L298 105.3L298.9 95.8C307.1 88.9 311.5 77.9 309.1 68C308.1 63.6 305.8 59.8 302.6 56.9L303.7 45.7L298.9 44.4L299.2 38.4L320.9 42.8L328.2 77.4L335.7 46.4L352.2 50L328.9 120.5Z" fill="url(#paint0_linear_3407_13332)"/>
<defs>
<linearGradient id="paint0_linear_3407_13332" x1="0.0519325" y1="65.0377" x2="360.001" y2="65.0377" gradientUnits="userSpaceOnUse">
<stop stop-color="#3C5AA6"/>
<stop offset="0.9331" stop-color="#2B73B9"/>
<stop offset="1" stop-color="#2A75BB"/>
</linearGradient>
</defs>
</svg>
